<svg xmlns="http://www.w3.org/2000/svg" width="84" height="41" id="foster"><path fill="#8E8F99" d="M13.0782 12.5179h-.0029c-2.3856 0-4.31956 1.7436-4.31956 3.8945v.0025c0 2.1509 1.93396 3.8945 4.31956 3.8945h.0029c2.3856 0 4.3196-1.7436 4.3196-3.8945v-.0025c0-2.1509-1.934-3.8945-4.3196-3.8945ZM44.9614 11.273c-.0068-2.9875-1.3259-5.85089-3.6686-7.96358C38.9501 1.19673 35.7745.00678345 32.461 0c-3.3144.00542712-6.4914 1.19477-8.8354 3.30761-2.3439 2.11284-3.6638 4.977-3.6706 7.96539v16.4742s25.0035-2.5108 25.0064-16.4717v-.0025ZM0 33.1543c.00600975 2.0787.924346 4.0707 2.55434 5.5408C4.18433 40.1652 6.39345 40.9939 8.69898 41c2.30502-.0061 4.51372-.8344 6.14362-2.304 1.6299-1.4695 2.5486-3.4609 2.5554-5.5392v-11.463S0 23.4421 0 33.1543Zm8.69898 2.0538c-.45054 0-.89096-.1204-1.26557-.3461-.37461-.2257-.66658-.5465-.839-.9218-.17241-.3752-.21752-.7882-.12962-1.1866.08789-.3984.30485-.7644.62343-1.0516.31857-.2873.72447-.4829 1.16635-.5621.44188-.0793.89991-.0386 1.31615.1169.41624.1554.77198.4187 1.02228.7564.2503.3378.3839.7349.3839 1.1411.0012.2703-.0569.5382-.1709.7883-.114.2501-.2816.4774-.4932.6689-.2117.1916-.46317.3436-.7401.4473-.27694.1036-.57385.157-.87372.157v-.0077ZM24.6089 31.515v4.2656H23.73V31.515h.8789Zm1.6992 1.8222v.6856h-1.9394v-.6856h1.9394Zm.2051-1.8222v.6884h-2.1445v-.6884h2.1445Zm4.0137 2.0332v.2021c0 .3242-.044.6152-.1319.8731-.0879.2578-.2119.4775-.3721.6591-.1601.1797-.3515.3174-.5742.4131-.2207.0957-.4658.1436-.7353.1436-.2676 0-.5127-.0479-.7354-.1436-.2207-.0957-.4121-.2334-.5742-.4131-.1621-.1816-.2881-.4013-.3779-.6591-.0879-.2579-.1319-.5489-.1319-.8731v-.2021c0-.3262.044-.6172.1319-.8731.0879-.2578.2119-.4775.372-.6592.1622-.1816.3536-.3203.5743-.416.2226-.0957.4677-.1435.7353-.1435.2696 0 .5147.0478.7354.1435.2226.0957.414.2344.5742.416.1621.1817.2871.4014.375.6592.0898.2559.1348.5469.1348.8731Zm-.8877.2021v-.208c0-.2266-.0205-.4258-.0616-.5977-.041-.1718-.1015-.3164-.1816-.4336-.0801-.1171-.1777-.205-.293-.2636-.1152-.0606-.247-.0908-.3955-.0908-.1484 0-.2803.0302-.3955.0908-.1133.0586-.2099.1465-.29.2636-.0782.1172-.1377.2618-.1787.4336-.0411.1719-.0616.3711-.0616.5977v.208c0 .2246.0205.4238.0616.5977.041.1718.1015.3173.1816.4365.0801.1172.1777.206.293.2666.1152.0605.247.0908.3955.0908.1484 0 .2803-.0303.3955-.0908.1152-.0606.2119-.1494.29-.2666.0782-.1192.1377-.2647.1787-.4365.0411-.1739.0616-.3731.0616-.5977Zm3.7412.9141c0-.0762-.0117-.1446-.0352-.2051-.0215-.0625-.0625-.1192-.123-.1699-.0606-.0528-.1455-.1045-.2549-.1553-.1094-.0508-.251-.1035-.4248-.1582-.1934-.0625-.377-.1328-.5508-.2109-.1719-.0782-.3242-.169-.457-.2725-.1309-.1055-.2344-.2275-.3106-.3662-.0742-.1387-.1113-.2998-.1113-.4834 0-.1778.0391-.3389.1172-.4834.0781-.1465.1875-.2715.3281-.375.1406-.1055.3066-.1865.4981-.2432.1933-.0566.4052-.0849.6357-.0849.3144 0 .5889.0566.8232.1699.2344.1133.4161.2685.545.4658.1308.1973.1962.4229.1962.6768h-.873c0-.125-.0264-.2344-.0791-.3282-.0508-.0957-.1289-.1709-.2344-.2256-.1035-.0546-.2344-.082-.3926-.082-.1523 0-.2793.0235-.3808.0703-.1016.045-.1777.1065-.2285.1846-.0508.0762-.0762.1621-.0762.2578 0 .0723.0176.1377.0527.1963.0371.0586.0918.1133.1641.1641.0723.0507.1611.0986.2666.1435.1055.0449.2275.0889.3662.1319.2324.0703.4365.1494.6123.2373.1777.0879.3262.1865.4453.2959.1192.1093.209.2334.2696.372.0605.1387.0908.2959.0908.4717 0 .1856-.0362.3516-.1084.4981-.0723.1464-.1768.2705-.3135.372-.1367.1016-.2998.1787-.4893.2315-.1894.0527-.4013.0791-.6357.0791-.2109 0-.4189-.0274-.624-.0821-.2051-.0566-.3916-.1416-.5596-.2548-.166-.1133-.2988-.2579-.3984-.4336-.0996-.1758-.1494-.3838-.1494-.6241h.8818c0 .1329.0205.2452.0615.337.041.0918.0986.166.1729.2226.0761.0567.166.0977.2695.1231.1055.0253.2207.038.3457.038.1523 0 .2773-.0214.375-.0644.0996-.043.1729-.1025.2197-.1787.0489-.0762.0733-.1621.0733-.2578Zm3.3838-3.1494v4.2656h-.876V31.515h.876Zm1.3125 0v.6884h-3.4805v-.6884h3.4805Zm3.3632 3.58v.6856h-2.2705v-.6856h2.2705Zm-1.9834-3.58v4.2656h-.8789V31.515h.8789Zm1.6875 1.7373v.6679h-1.9746v-.6679h1.9746Zm.293-1.7373v.6884h-2.2676v-.6884h2.2676Zm.5156 0h1.5909c.3261 0 .6064.0488.8408.1464.2363.0977.4179.2422.5449.4336.127.1914.1904.4268.1904.7061 0 .2285-.039.4248-.1172.5889-.0761.1621-.1845.2978-.3252.4072-.1386.1074-.3017.1933-.4892.2578l-.2783.1465h-1.3828l-.0059-.6856h1.0283c.1543 0 .2822-.0273.3838-.082.1016-.0547.1777-.1309.2285-.2285.0528-.0977.0791-.211.0791-.3399 0-.1367-.0254-.2548-.0761-.3545-.0508-.0996-.128-.1757-.2315-.2285-.1035-.0527-.2334-.0791-.3896-.0791h-.712v3.5772h-.8789V31.515Zm2.3848 4.2656-.9727-1.9014.9288-.0058.9843 1.8662v.041h-.9404Zm4.6143-1.5205h-1.087v-.6856h1.087c.1679 0 .3046-.0273.4101-.082.1055-.0566.1826-.1348.2315-.2344.0488-.0996.0732-.2119.0732-.3369 0-.1269-.0244-.2451-.0732-.3545-.0489-.1094-.126-.1973-.2315-.2637-.1055-.0664-.2422-.0996-.4101-.0996h-.7823v3.5772h-.8789V31.515h1.6612c.3339 0 .6201.0605.8584.1816.2402.1191.4238.2842.5507.4951.127.2109.1905.4522.1905.7236 0 .2754-.0635.5137-.1905.7149-.1269.2012-.3105.3564-.5507.4658-.2383.1094-.5245.1641-.8584.1641Zm5.0683.8349v.6856h-2.2705v-.6856H54.02Zm-1.9834-3.58v4.2656h-.8789V31.515h.8789Zm1.6875 1.7373v.6679h-1.9746v-.6679h1.9746Zm.293-1.7373v.6884h-2.2676v-.6884h2.2676Zm2.4814 0v4.2656h-.8759V31.515h.8759Zm1.3125 0v.6884h-3.4804v-.6884h3.4804Zm3.3633 3.58v.6856h-2.2705v-.6856h2.2705Zm-1.9834-3.58v4.2656h-.8789V31.515h.8789Zm1.6875 1.7373v.6679h-1.9746v-.6679h1.9746Zm.293-1.7373v.6884h-2.2676v-.6884h2.2676Zm.5156 0h1.5908c.3262 0 .6065.0488.8409.1464.2363.0977.4179.2422.5449.4336.1269.1914.1904.4268.1904.7061 0 .2285-.0391.4248-.1172.5889-.0762.1621-.1846.2978-.3252.4072-.1387.1074-.3017.1933-.4892.2578l-.2784.1465h-1.3828l-.0058-.6856h1.0283c.1543 0 .2822-.0273.3838-.082.1015-.0547.1777-.1309.2285-.2285.0527-.0977.0791-.211.0791-.3399 0-.1367-.0254-.2548-.0762-.3545-.0508-.0996-.1279-.1757-.2314-.2285-.1035-.0527-.2334-.0791-.3897-.0791h-.7119v3.5772h-.8789V31.515Zm2.3848 4.2656-.9727-1.9014.9287-.0058.9844 1.8662v.041h-.9404Zm3.6797-1.1162c0-.0762-.0118-.1446-.0352-.2051-.0215-.0625-.0625-.1192-.123-.1699-.0606-.0528-.1455-.1045-.2549-.1553-.1094-.0508-.251-.1035-.4248-.1582-.1934-.0625-.377-.1328-.5508-.2109-.1719-.0782-.3242-.169-.457-.2725-.1309-.1055-.2344-.2275-.3106-.3662-.0742-.1387-.1113-.2998-.1113-.4834 0-.1778.039-.3389.1172-.4834.0781-.1465.1875-.2715.3281-.375.1406-.1055.3066-.1865.498-.2432.1934-.0566.4053-.0849.6358-.0849.3144 0 .5889.0566.8232.1699.2344.1133.416.2685.545.4658.1308.1973.1962.4229.1962.6768h-.873c0-.125-.0264-.2344-.0791-.3282-.0508-.0957-.1289-.1709-.2344-.2256-.1035-.0546-.2344-.082-.3926-.082-.1523 0-.2793.0235-.3808.0703-.1016.045-.1778.1065-.2285.1846-.0508.0762-.0762.1621-.0762.2578 0 .0723.0176.1377.0527.1963.0371.0586.0918.1133.1641.1641.0723.0507.1611.0986.2666.1435.1055.0449.2275.0889.3662.1319.2324.0703.4365.1494.6123.2373.1777.0879.3262.1865.4453.2959.1192.1093.209.2334.2696.372.0605.1387.0908.2959.0908.4717 0 .1856-.0362.3516-.1084.4981-.0723.1464-.1768.2705-.3135.372-.1367.1016-.2998.1787-.4893.2315-.1894.0527-.4013.0791-.6357.0791-.2109 0-.4189-.0274-.624-.0821-.2051-.0566-.3916-.1416-.5596-.2548-.166-.1133-.2988-.2579-.3984-.4336-.0996-.1758-.1494-.3838-.1494-.6241h.8818c0 .1329.0205.2452.0615.337.041.0918.0986.166.1729.2226.0761.0567.166.0977.2695.1231.1055.0253.2207.038.3457.038.1523 0 .2773-.0214.375-.0644.0996-.043.1728-.1025.2197-.1787.0489-.0762.0733-.1621.0733-.2578Z"/></svg>